<?xml version="1.0" encoding="UTF-8"?>
<svg width="24px" height="24px" viewBox="0 0 24 24" version="1.1" xmlns="http://www.w3.org/2000/svg" xmlns:xlink="http://www.w3.org/1999/xlink">
    <!-- Generator: Sketch 44.1 (41455) - http://www.bohemiancoding.com/sketch -->
    <title>foodbytes</title>
    <desc>Created with Sketch.</desc>
    <defs></defs>
    <g id="UI" stroke="none" stroke-width="1" fill="none" fill-rule="evenodd">
        <g id="foodbytes" fill-rule="nonzero" fill="#FFFFFF">
            <path d="M12,0 C5.38205893,0 0,5.38205333 0,12 C0,18.6179467 5.38205893,24 12,24 C18.6179411,24 24,18.6179467 24,12 C24,10.402584 23.7240683,8.85163467 23.1416667,7.43333333 C23.0607712,7.23186279 22.9014741,7.07191716 22.7003338,6.99020393 C22.4991936,6.90849071 22.273482,6.91202656 22.075,7 C21.843808,7.10405333 20.4225672,8.2 20.0666667,8.2 C19.7065821,8.2 19.1816125,8.00307733 18.8,7.68333333 C18.4183875,7.36358933 19.2,5.97250933 19.2,5.6 C19.1999558,5.1581905 18.8418095,4.80004417 18.4,4.8 C17.3548496,4.8 15.6790229,5.224424 15.5083333,4.54166667 C15.4538347,4.31956301 15.3068968,4.13139727 15.1046266,4.0246878 C14.9023565,3.91797834 14.6640908,3.90292648 14.45,3.98333333 C14.1784008,4.085208 13.7337261,4.2 13.6666667,4.2 C12.6262597,4.2 12.8,2.37374133 12.8,1.33333333 L12.8,0.8 C12.7999558,0.358190499 12.4418095,4.41743243e-05 12,0 Z M11.2333333,1.675 C11.4080323,3.42021867 11.8778152,5.8 13.6666667,5.8 C13.9122395,5.8 14.1179843,5.74996533 14.3166667,5.7 C14.8022539,6.52955467 16.6551099,6.100624 17.6916667,6.29166667 C17.8680472,6.94918667 17.2854365,8.50647467 17.775,8.91666667 C18.4277512,9.46358933 19.2308736,9.8 20.0666667,9.8 C20.3348048,9.8 21.6013008,8.77186667 21.8583333,8.725 C22.1894091,9.75100533 22.4,10.8438 22.4,12 C22.4,17.7532267 17.7532371,22.4 12,22.4 C6.24676293,22.4 1.6,17.7532267 1.6,12 C1.6,6.50926933 5.8460104,2.07266933 11.2333333,1.675 Z M12,7.2 C9.35850907,7.2 7.2,9.358504 7.2,12 C7.2,14.6414933 9.35850907,16.8 12,16.8 C14.6414909,16.8 16.8,14.6414933 16.8,12 C16.8,9.358504 14.6414909,7.2 12,7.2 Z M12,8.8 C13.7767867,8.8 15.2,10.223208 15.2,12 C15.2,13.7767733 13.7767867,15.2 12,15.2 C10.2232131,15.2 8.8,13.7767733 8.8,12 C8.8,10.223208 10.2232131,8.8 12,8.8 Z" id="Shape"></path>
        </g>
    </g>
</svg>