<?xml version="1.0" encoding="UTF-8"?>
<svg width="164px" height="40px" viewBox="0 0 164 40" version="1.1" xmlns="http://www.w3.org/2000/svg" xmlns:xlink="http://www.w3.org/1999/xlink">
    <!-- Generator: Sketch 43.1 (39012) - http://www.bohemiancoding.com/sketch -->
    <title>menus-logo</title>
    <desc>Created with Sketch.</desc>
    <defs></defs>
    <g id="UI" stroke="none" stroke-width="1" fill="none" fill-rule="evenodd">
        <g id="menus-logo" fill="#263238">
            <path d="M27.986,35.9495462 L27.986,19.2597962 L22.6706667,30.9961712 L18.0253333,30.9961712 L12.71,19.2597962 L12.71,35.9495462 L4,35.9495462 L4,4.26579619 L13.514,4.26579619 L20.348,19.1705462 L27.2266667,4.26579619 L36.696,4.26579619 L36.696,35.9495462 L27.986,35.9495462 Z M64.7466667,28.3632962 L64.7466667,35.9495462 L42.1453333,35.9495462 L42.1453333,4.26579619 L64.3446667,4.26579619 L64.3446667,11.8520462 L50.8553333,11.8520462 L50.8553333,16.3145462 L62.3793333,16.3145462 L62.3793333,23.3652962 L50.8553333,23.3652962 L50.8553333,28.3632962 L64.7466667,28.3632962 Z M77.5213333,20.3754212 L77.5213333,35.9495462 L68.8113333,35.9495462 L68.8113333,4.26579619 L75.6006667,4.26579619 L88.3306667,20.3754212 L88.3306667,4.26579619 L97.0406667,4.26579619 L97.0406667,35.9495462 L90.1173333,35.9495462 L77.5213333,20.3754212 Z M116.336667,28.4971712 C117.349116,28.4971712 118.212663,28.2740484 118.927333,27.8277962 C119.642004,27.381544 120.222664,26.7939873 120.669333,26.0651087 C121.116002,25.33623 121.443555,24.4958009 121.652,23.5437962 C121.860445,22.5917914 121.964667,21.5951764 121.964667,20.5539212 L121.964667,4.26579619 L130.674667,4.26579619 L130.674667,20.5539212 C130.674667,22.7554322 130.391781,24.8155991 129.826,26.7344837 C129.260219,28.6533683 128.381784,30.3119142 127.190667,31.7101712 C125.99955,33.1084282 124.503231,34.2091672 122.701667,35.0124212 C120.900102,35.8156752 118.778457,36.2172962 116.336667,36.2172962 C113.805543,36.2172962 111.639231,35.7933629 109.837667,34.9454837 C108.036102,34.0976044 106.554672,32.9596783 105.393333,31.5316712 C104.231994,30.103664 103.383336,28.4451181 102.847333,26.5559837 C102.311331,24.6668492 102.043333,22.6661817 102.043333,20.5539212 L102.043333,4.26579619 L110.753333,4.26579619 L110.753333,20.5539212 C110.753333,21.5951764 110.857555,22.5992289 111.066,23.5661087 C111.274445,24.5329885 111.601998,25.380855 112.048667,26.1097337 C112.495336,26.8386123 113.068552,27.4187315 113.768333,27.8501087 C114.468115,28.2814858 115.324217,28.4971712 116.336667,28.4971712 Z M143.354795,4.38405141 C144.365,4.14502398 145.414628,4.01700775 146.503694,4.00000042 L150.53485,10.0675471 L148.889408,4.12780951 C149.313621,4.18023322 149.733596,4.24854122 150.149333,4.33273369 C151.251117,4.5558598 152.315662,4.83848197 153.343,5.18060869 C154.370338,5.5227354 154.884,14.6187962 154.884,14.6187962 C153.990662,14.0832935 153.06756,13.6072983 152.114667,13.1907962 C151.310663,12.8337944 150.409894,12.4991102 149.412333,12.1867337 C148.414773,11.8743571 147.43956,11.7181712 146.486667,11.7181712 C145.712441,11.7181712 145.094558,11.83717 144.633,12.0751712 C144.171442,12.3131724 143.940667,12.7147934 143.940667,13.2800462 C143.940667,13.6965483 144.074665,14.0386698 144.342667,14.3064212 C144.610668,14.5741725 144.997775,14.8196076 145.504,15.0427337 C146.010225,15.2658598 146.628107,15.4815451 147.357667,15.6897962 C148.087226,15.8980472 148.913551,16.1509197 149.836667,16.4484212 C151.295785,16.8946734 152.613439,17.3855435 153.789667,17.9210462 C154.965895,18.4565489 155.970885,19.08873 156.804667,19.8176087 C157.638449,20.5464873 158.278664,21.431541 158.725333,22.4727962 C159.172002,23.5140514 159.395333,24.7784137 159.395333,26.2659212 C159.395333,28.1699307 159.045448,29.7689772 158.345667,31.0631087 C157.645885,32.3572402 156.722784,33.3910423 155.576333,34.1645462 C154.429883,34.9380501 153.134563,35.495857 151.690333,35.8379837 C150.246104,36.1801104 148.794452,36.3511712 147.335333,36.3511712 C146.173994,36.3511712 144.982895,36.2619221 143.762,36.0834212 C142.541105,35.9049203 141.327673,35.6520478 140.121667,35.3247962 C138.915661,34.9975445 137.754339,34.6107984 136.637667,34.1645462 C135.520994,33.718294 134.486227,33.212549 133.533333,32.6472962 L137.285333,25.0164212 C138.327561,25.6709245 139.414439,26.2510437 140.546,26.7567962 C141.498894,27.2030484 142.578327,27.6046694 143.784333,27.9616712 C144.990339,28.318673 146.21866,28.4971712 147.469333,28.4971712 C148.422227,28.4971712 149.084776,28.3707349 149.457,28.1178587 C149.829224,27.8649824 150.015333,27.5302983 150.015333,27.1137962 C150.015333,26.667544 149.829224,26.2882352 149.457,25.9758587 C149.084776,25.6634821 148.571114,25.3882974 147.916,25.1502962 C147.260886,24.912295 146.509004,24.6742974 145.660333,24.4362962 C144.811662,24.198295 143.910894,23.9156728 142.958,23.5884212 C141.558437,23.1124188 140.35245,22.5992364 139.34,22.0488587 C138.32755,21.4984809 137.493781,20.8737372 136.838667,20.1746087 C136.183552,19.4754802 135.699668,18.6796756 135.387,17.7871712 C135.074332,16.8946667 134.918,15.868302 134.918,14.7080462 C134.918,12.9527874 135.238108,11.4058029 135.878333,10.0670462 C136.518559,8.72828949 137.38955,7.61267565 138.491333,6.72017119 C139.48438,5.91574898 140.604411,5.2865513 141.851454,4.83256328 L144.858087,8.88110636 L143.354795,4.38405142 Z" id="menus"></path>
        </g>
    </g>
</svg>