<!DOCTYPE svg PUBLIC "-//W3C//DTD SVG 20010904//EN" "http://www.w3.org/TR/2001/REC-SVG-20010904/DTD/svg10.dtd">
<svg version="1.0" xmlns="http://www.w3.org/2000/svg" width="1080px" height="351px" viewBox="0 0 10800 3510" preserveAspectRatio="xMidYMid meet"><g fill="#ffffff" stroke="none">
 <path d="M5137 3469 c-119 -28 -160 -99 -95 -166 30 -31 31 -34 15 -51 -29 -32 -22 -77 17 -108 l34 -27 -29 -30 c-44 -43 -40 -89 10 -137 47 -45 100 -60 211 -60 75 0 84 -2 102 -25 23 -29 79 -48 128 -43 34 3 35 5 35 43 0 39 -1 40 -43 47 -59 10 -64 15 -37 42 55 56 38 126 -42 173 -44 26 -56 28 -156 29 -110 0 -134 7 -117 34 7 12 40 16 152 20 154 6 187 15 227 66 54 68 0 155 -116 187 -65 18 -230 22 -296 6z m253 -82 c43 -15 51 -43 17 -56 -13 -5 -78 -11 -143 -12 -114 -3 -119 -2 -122 19 -2 13 5 25 20 33 49 27 171 35 228 16z m-52 -318 c57 -20 53 -72 -8 -90 -44 -13 -102 -5 -125 17 -52 52 43 105 133 73z"/>
 <path d="M1150 3331 c-106 -35 -170 -116 -170 -216 0 -124 91 -211 233 -222 98 -7 165 14 223 72 108 108 74 272 -71 348 -44 22 -170 33 -215 18z m164 -115 c52 -34 58 -139 12 -193 -21 -25 -31 -28 -85 -28 -53 0 -64 4 -88 27 -21 22 -27 39 -31 85 -3 49 0 63 18 86 13 16 32 33 44 38 30 12 101 5 130 -15z"/>
 <path d="M2314 3321 c-131 -59 -163 -233 -67 -359 52 -69 177 -94 255 -52 l37 20 3 -83 3 -82 70 0 70 0 0 280 0 280 -65 0 c-59 0 -65 -2 -70 -24 -5 -22 -6 -23 -20 -6 -38 46 -144 59 -216 26z m196 -109 c22 -17 25 -28 28 -90 2 -40 -2 -80 -7 -91 -25 -45 -132 -51 -171 -9 -26 28 -36 100 -21 150 9 29 21 43 44 54 39 17 93 11 127 -14z"/>
 <path d="M3113 3326 c-54 -17 -100 -50 -118 -86 -18 -35 -12 -40 61 -47 46 -5 58 -3 77 15 28 26 83 36 143 27 41 -6 66 -26 51 -42 -3 -3 -54 -14 -113 -24 -58 -11 -119 -26 -134 -34 -44 -23 -70 -63 -70 -108 0 -32 7 -46 38 -77 48 -48 103 -64 203 -58 89 5 143 29 177 78 27 40 20 50 -41 57 -34 4 -57 0 -92 -17 -48 -23 -115 -24 -138 -1 -20 20 9 33 120 53 126 22 161 40 186 91 50 100 -63 188 -237 186 -39 0 -90 -6 -113 -13z"/>
 <path d="M4155 3322 c-62 -30 -90 -66 -90 -117 0 -36 6 -50 34 -79 46 -47 106 -66 229 -73 105 -6 121 -15 85 -44 -10 -9 -43 -14 -94 -14 -65 0 -82 4 -108 23 -32 24 -82 29 -125 12 -36 -13 -32 -32 14 -73 57 -52 128 -70 254 -65 88 3 107 7 147 30 27 16 51 39 57 55 6 15 13 93 15 173 2 80 5 152 8 160 3 12 -8 16 -54 18 -63 3 -87 -8 -87 -40 0 -17 -5 -16 -45 13 -40 28 -54 33 -122 36 -62 3 -86 0 -118 -15z m198 -93 c50 -14 77 -42 77 -79 l0 -31 -62 6 c-90 9 -147 25 -158 46 -28 51 52 84 143 58z"/>
 <path d="M5746 3325 c-158 -56 -205 -236 -93 -353 59 -62 100 -77 207 -77 109 1 136 11 193 74 38 42 61 101 55 141 l-3 25 -189 3 -188 2 6 28 c9 37 39 60 91 67 53 8 111 -9 126 -37 10 -18 18 -20 69 -15 78 7 85 12 63 47 -28 43 -79 81 -130 96 -58 18 -156 17 -207 -1z m222 -277 c-2 -6 -17 -21 -32 -32 -53 -40 -196 -19 -196 29 0 12 20 15 116 15 85 0 115 -3 112 -12z"/>
 <path d="M6263 3326 c-54 -17 -100 -50 -118 -86 -18 -35 -12 -40 61 -47 46 -5 58 -3 77 15 28 26 83 36 143 27 41 -6 66 -26 51 -42 -3 -3 -54 -14 -113 -24 -58 -11 -119 -26 -134 -34 -44 -23 -70 -63 -70 -108 0 -32 7 -46 38 -77 48 -48 103 -64 203 -58 89 5 143 29 177 78 27 40 20 50 -41 57 -34 4 -57 0 -92 -17 -48 -23 -115 -24 -138 -1 -20 20 9 33 120 53 126 22 161 40 186 91 50 100 -63 188 -237 186 -39 0 -90 -6 -113 -13z"/>
 <path d="M6795 3326 c-16 -7 -41 -26 -55 -40 -24 -26 -25 -35 -28 -156 l-4 -129 -31 -3 c-31 -3 -32 -5 -32 -48 0 -45 0 -45 36 -48 34 -3 37 -5 42 -44 7 -53 17 -62 74 -62 l48 -1 3 52 3 52 57 3 57 3 0 45 0 45 -57 3 -58 3 0 102 c0 56 4 108 9 115 4 8 33 17 62 20 53 7 54 8 57 42 3 24 -2 38 -14 47 -23 17 -130 16 -169 -1z"/>
 <path d="M8282 3333 c-12 -2 -38 -19 -57 -37 l-35 -33 0 -131 0 -131 -32 -3 c-32 -3 -33 -5 -33 -48 0 -45 0 -45 37 -48 36 -3 37 -4 40 -50 l3 -47 46 -9 c68 -13 79 -6 79 53 l0 50 58 3 57 3 0 45 0 45 -57 3 -58 3 0 109 c0 68 4 111 11 116 6 3 34 9 63 13 50 6 51 7 54 41 5 47 -17 60 -92 59 -34 -1 -71 -4 -84 -6z"/>
 <path d="M8655 3329 c-16 -4 -47 -22 -68 -40 -86 -71 -109 -193 -52 -285 58 -94 184 -137 305 -104 73 20 154 120 122 152 -6 6 -36 13 -66 16 -51 4 -54 3 -67 -24 -30 -61 -120 -68 -161 -13 -24 32 -29 110 -10 155 30 70 133 71 169 1 14 -29 17 -29 73 -24 79 7 84 11 61 56 -26 50 -81 97 -128 110 -45 13 -136 13 -178 0z"/>
 <path d="M9766 3325 c-90 -32 -156 -119 -156 -205 1 -93 72 -185 168 -216 63 -20 182 -15 229 9 69 36 130 136 121 197 l-3 25 -189 3 -188 2 6 28 c9 37 39 60 91 67 53 8 111 -9 126 -37 10 -18 18 -20 69 -15 78 7 85 12 63 47 -28 43 -79 81 -130 96 -58 18 -156 17 -207 -1z m222 -277 c-8 -22 -55 -49 -94 -55 -49 -6 -112 15 -132 45 l-14 22 122 0 c89 0 121 -3 118 -12z"/>
 <path d="M209 3303 c-74 -191 -189 -511 -189 -525 0 -17 8 -19 76 -16 l77 3 65 178 c36 98 68 174 72 170 4 -4 31 -80 60 -168 29 -88 57 -166 63 -172 6 -8 34 -13 73 -13 78 0 72 -9 150 204 68 184 54 188 130 -39 26 -77 51 -146 57 -152 11 -16 113 -17 122 -3 7 11 -160 526 -178 548 -6 7 -35 12 -78 12 -43 0 -71 -4 -76 -12 -4 -7 -37 -93 -73 -190 l-66 -177 -58 177 c-32 97 -63 183 -69 190 -6 7 -35 12 -78 12 -67 0 -70 -1 -80 -27z"/>
 <path d="M1605 3318 c-3 -8 -4 -103 -3 -213 l3 -200 60 0 c58 0 60 1 66 30 4 17 7 25 8 18 2 -22 88 -65 123 -61 33 3 33 3 33 58 0 47 -3 55 -20 58 -117 20 -128 36 -135 196 l-5 121 -63 3 c-45 2 -64 -1 -67 -10z"/>
 <path d="M1965 3318 c-3 -7 -4 -135 -3 -283 l3 -270 70 0 70 0 0 280 0 280 -68 3 c-48 2 -69 -1 -72 -10z"/>
 <path d="M3845 3318 c-3 -7 -4 -135 -3 -283 l3 -270 65 0 65 0 0 280 0 280 -63 3 c-44 2 -64 -1 -67 -10z"/>
 <path d="M4695 3318 c-3 -8 -4 -103 -3 -213 l3 -200 60 0 c58 0 60 1 65 29 5 27 6 28 19 12 23 -27 90 -58 119 -54 26 3 27 6 27 57 l0 55 -50 12 c-82 21 -94 45 -97 189 l-3 120 -68 3 c-49 2 -69 -1 -72 -10z"/>
 <path d="M7345 3318 c-3 -7 -4 -135 -3 -283 l3 -270 65 0 65 0 5 159 5 159 110 -92 109 -91 63 0 c34 0 64 4 67 9 3 5 -22 33 -57 62 -34 29 -68 58 -75 64 -11 10 2 37 68 144 45 72 78 135 75 141 -3 5 -35 10 -70 10 l-63 0 -62 -100 c-34 -55 -64 -100 -67 -100 -3 0 -27 19 -52 42 -42 39 -46 48 -51 98 l-5 55 -63 3 c-44 2 -64 -1 -67 -10z"/>
 <path d="M7925 3318 c-3 -8 -4 -103 -3 -213 l3 -200 65 0 65 0 0 210 0 210 -63 3 c-45 2 -64 -1 -67 -10z"/>
 <path d="M9065 3318 c-3 -7 -4 -135 -3 -283 l3 -270 65 0 65 0 5 94 c5 86 6 93 20 76 35 -43 139 -59 203 -31 18 7 43 26 57 40 25 27 25 30 25 204 l0 177 -65 0 -65 0 -3 -152 c-2 -150 -3 -153 -27 -169 -30 -20 -82 -13 -117 15 -22 18 -23 28 -28 163 l-5 143 -63 3 c-44 2 -64 -1 -67 -10z"/>
 <path d="M10235 3318 c-3 -8 -4 -103 -3 -213 l3 -200 60 0 c58 0 60 1 65 29 5 27 6 28 19 12 53 -63 186 -75 256 -22 59 45 66 74 63 249 l-3 152 -65 0 -65 0 -6 -155 c-3 -85 -7 -156 -7 -157 -1 -1 -18 -7 -37 -13 -42 -14 -92 -1 -121 31 -16 18 -20 43 -24 158 l-5 136 -63 3 c-45 2 -64 -1 -67 -10z"/>
 <path d="M2812 2983 c-4 -10 -7 -63 -7 -118 l0 -100 65 0 65 0 -4 105 c-2 58 -8 111 -13 118 -16 19 -97 16 -106 -5z"/>
 <path d="M7924 2857 c-3 -8 -4 -32 -2 -53 l3 -39 65 0 65 0 0 50 0 50 -63 3 c-47 2 -64 -1 -68 -11z"/>
 <path d="M3873 2266 c-211 -41 -393 -135 -537 -281 -129 -130 -228 -297 -278 -470 -20 -70 -23 -102 -23 -260 0 -204 13 -269 85 -422 184 -393 559 -621 989 -600 372 18 731 266 870 601 57 137 75 233 75 406 1 85 -2 163 -6 173 -7 16 -55 17 -808 17 l-800 0 21 53 c57 145 180 294 299 360 118 64 188 82 330 82 110 -1 133 -4 192 -27 95 -36 168 -82 254 -160 82 -74 101 -83 176 -76 45 5 57 11 93 50 81 85 71 164 -35 268 -124 123 -281 214 -457 266 -109 32 -324 42 -440 20z m817 -1209 c0 -13 -9 -49 -19 -80 -53 -153 -203 -294 -389 -365 -59 -23 -82 -26 -192 -27 -142 0 -212 18 -330 82 -119 66 -242 215 -299 361 l-21 52 625 0 625 0 0 -23z"/>
 <path d="M4365 1001 c-3 -5 -1 -12 5 -16 18 -11 10 -89 -15 -143 -13 -29 -47 -77 -76 -107 -58 -62 -58 -81 2 -60 82 29 161 80 209 133 55 62 114 166 106 188 -4 11 -29 14 -115 14 -60 0 -112 -4 -116 -9z"/>
 <path d="M8040 2255 c-316 -70 -543 -309 -605 -636 -13 -73 -15 -165 -13 -636 l3 -551 31 -39 c68 -83 179 -94 255 -26 22 20 45 46 52 57 9 15 14 167 18 551 5 511 6 533 28 605 56 187 179 301 360 332 201 34 398 -65 481 -244 54 -115 60 -190 60 -707 0 -290 4 -480 10 -503 21 -73 102 -138 175 -138 73 0 154 65 175 138 14 50 13 953 -1 1079 -38 348 -260 620 -574 708 -84 24 -366 30 -455 10z"/>
 <path d="M9815 2256 c-98 -19 -179 -44 -255 -78 -105 -47 -140 -91 -140 -176 0 -85 61 -151 148 -160 43 -4 61 1 125 32 95 45 176 65 302 72 118 7 223 -11 290 -51 79 -46 116 -162 79 -241 -34 -72 -125 -124 -374 -214 -343 -124 -487 -225 -551 -387 -18 -47 -23 -78 -23 -163 0 -170 49 -295 160 -406 109 -110 242 -157 439 -158 132 -1 221 16 365 66 173 61 239 108 260 186 28 106 -78 219 -183 196 -17 -3 -58 -21 -91 -39 -225 -123 -500 -99 -567 49 -39 87 -14 180 64 237 59 44 136 78 327 144 354 122 493 213 565 367 22 48 25 66 25 183 0 122 -2 134 -29 190 -56 118 -154 211 -296 280 -136 65 -192 77 -395 81 -118 2 -198 -1 -245 -10z"/>
 <path d="M155 2228 c-43 -15 -104 -77 -116 -118 -7 -23 -9 -232 -7 -625 l4 -590 26 -97 c38 -140 87 -228 178 -318 86 -86 174 -137 295 -172 66 -19 104 -22 220 -22 159 0 226 14 334 69 96 49 222 163 261 236 6 10 14 19 18 19 4 0 22 -23 41 -51 89 -130 251 -235 411 -265 107 -21 264 -14 370 16 234 66 408 245 476 490 16 59 18 124 22 682 3 607 3 617 -18 657 -62 123 -239 130 -312 13 l-23 -37 -5 -575 c-5 -567 -5 -576 -28 -638 -42 -117 -98 -184 -192 -230 -50 -25 -65 -27 -170 -27 -110 0 -118 2 -182 33 -75 37 -116 78 -157 160 -49 98 -51 125 -51 690 0 290 -5 545 -10 566 -17 74 -78 130 -156 142 -56 8 -125 -24 -168 -79 l-31 -39 -5 -576 c-5 -518 -8 -583 -24 -632 -37 -116 -102 -190 -205 -239 -50 -23 -68 -26 -166 -26 -98 0 -116 3 -166 26 -108 51 -172 132 -205 260 -14 55 -17 144 -21 619 -2 363 -8 565 -15 583 -15 37 -70 84 -115 96 -46 13 -68 13 -108 -1z"/>
 <path d="M5545 2229 c-40 -15 -94 -67 -111 -106 -11 -26 -14 -130 -14 -540 0 -612 7 -678 90 -851 145 -304 431 -467 790 -449 191 10 329 58 467 162 127 95 237 264 285 440 21 77 22 99 26 643 3 555 3 564 -18 607 -47 97 -169 131 -258 72 -82 -54 -80 -36 -84 -618 -4 -489 -5 -518 -26 -592 -44 -160 -122 -259 -252 -321 -62 -30 -71 -31 -191 -31 -125 0 -125 0 -201 38 -131 64 -210 176 -245 343 -13 64 -17 174 -22 590 l-6 511 -28 36 c-15 21 -41 44 -57 52 -40 21 -108 27 -145 14z"/>
 <path d="M3896 172 c-8 -13 63 -102 102 -131 22 -15 45 -21 86 -21 50 0 60 4 94 34 45 41 87 112 72 121 -6 4 -44 1 -85 -6 -70 -11 -157 -9 -231 7 -18 3 -34 2 -38 -4z"/>
 </g>

</svg>